PathFileType	4	(X/Y/Z)	./resultDataOpenSim/trcMotMarkerGrf/sub09/qtm-02-06.trc
DataRate	CameraRate	NumFrames	NumMarkers	Units	OrigDataRate	OrigDataStartFrame	OrigNumFrames
250.000000	250.000000	8	24	m	250.000000	61	485
Frame#	Time	L.Toe.Tip			R.Toe.Tip			L.Ankle.Lat			R.Ankle.Lat			L.Ankle.Med			R.Ankle.Med			L.Heel			R.Heel			L.Knee.Lat			R.Knee.Lat			L.Knee.Med			R.Knee.Med			L.Thigh.Upper			R.Thigh.Upper			L.ASIS			R.ASIS			V.Sacral			L.Acromium			R.Acromium			C7			L.Elbow			R.Elbow			L.Wrist.Lat			R.Wrist.Lat
		X1	Y1	Z1	X2	Y2	Z2	X3	Y3	Z3	X4	Y4	Z4	X5	Y5	Z5	X6	Y6	Z6	X7	Y7	Z7	X8	Y8	Z8	X9	Y9	Z9	X10	Y10	Z10	X11	Y11	Z11	X12	Y12	Z12	X13	Y13	Z13	X14	Y14	Z14	X15	Y15	Z15	X16	Y16	Z16	X17	Y17	Z17	X18	Y18	Z18	X19	Y19	Z19	X20	Y20	Z20	X21	Y21	Z21	X22	Y22	Z22	X23	Y23	Z23	X24	Y24	Z24

61	0.24	-1.4429447	0.089783206	-0.041496095	-0.67852291	0.040346721	0.10965283	-1.4605896	0.24683279	-0.078518721	-0.82517942	0.054364359	0.14429765	-1.4376603	0.22754221	0.015136505	-0.81905777	0.090894817	0.052629466	-1.5202991	0.29295427	-0.02929371	-0.89473756	0.031147731	0.096790609	-1.08606	0.41922672	-0.10407266	-0.79307631	0.50938414	0.19351338	-1.0703593	0.40635681	0.020223769	-0.81005251	0.49349084	0.067131725	-1.0311472	0.82399479	-0.12242938	-1.0004648	0.85799128	0.25022145	-0.93826202	0.91081567	-0.070655995	-0.92859046	0.94181278	0.16961426	-1.1006916	0.98177501	0.051792742	-0.91673257	1.3802857	-0.096343914	-0.95371604	1.3728316	0.23120672	-0.99851311	1.4336141	0.068609975	-1.0305722	1.0246069	-0.18414676	-1.1028498	1.0407173	0.29408699	-0.80461391	0.87554963	-0.14968273	-0.99533307	0.79232908	0.32937255
62	0.244	-1.4302818	0.092934099	-0.042135323	-0.67837014	0.04025051	0.10942309	-1.4478281	0.24999305	-0.077775018	-0.82504787	0.054427889	0.14431818	-1.424612	0.22984617	0.015806724	-0.81870881	0.090896725	0.052532968	-1.5072696	0.29603279	-0.028003326	-0.89477422	0.031170171	0.096866992	-1.0723142	0.41948196	-0.10340418	-0.78902749	0.50932607	0.1932768	-1.0585672	0.40666908	0.021209207	-0.8068784	0.49346248	0.066947081	-1.0244569	0.82455495	-0.1220114	-0.99280462	0.85945087	0.25079934	-0.93209802	0.91180997	-0.070422548	-0.92211969	0.94285146	0.16982352	-1.0942626	0.98313717	0.052152832	-0.9102417	1.3813375	-0.096195791	-0.94662722	1.3738583	0.23144272	-0.99187991	1.4348994	0.069077873	-1.0248185	1.0259923	-0.18326768	-1.0954612	1.0414729	0.29486254	-0.80089748	0.8740741	-0.14978	-0.98671381	0.7933313	0.32934777
63	0.248	-1.4171251	0.095835892	-0.042617909	-0.67822889	0.040173878	0.10918729	-1.4347873	0.25286799	-0.077023407	-0.82489755	0.054486607	0.14433581	-1.4120179	0.23200815	0.016685912	-0.81833629	0.090903652	0.052426007	-1.494091	0.29876634	-0.02685305	-0.89478557	0.031189007	0.096916993	-1.0585076	0.42000577	-0.10271886	-0.78516314	0.50917166	0.19312722	-1.0477329	0.40713499	0.022184707	-0.80376107	0.49336329	0.066764151	-1.0178244	0.82527543	-0.12165897	-0.98538355	0.86100675	0.25130032	-0.92603563	0.91290879	-0.070249537	-0.91563154	0.94402282	0.16995586	-1.0879176	0.98462795	0.052529862	-0.903643	1.3824692	-0.096028274	-0.9395223	1.3749593	0.23165228	-0.98545215	1.4361885	0.069316369	-1.0191441	1.0273949	-0.18238408	-1.0881301	1.0423222	0.29562557	-0.7972265	0.87265066	-0.14992811	-0.97808208	0.79443625	0.32927347
64	0.252	-1.4035132	0.098486838	-0.042939367	-0.67811328	0.040106571	0.10897214	-1.4214738	0.25543336	-0.076271214	-0.82478332	0.054535898	0.14435018	-1.3994225	0.23412511	0.017556765	-0.81795928	0.090909684	0.052309961	-1.4808593	0.30115063	-0.025896392	-0.89478094	0.031186524	0.096941939	-1.0447089	0.42074568	-0.10200999	-0.78143273	0.50891828	0.19306268	-1.0368006	0.40771625	0.023156622	-0.80070648	0.49320087	0.066616458	-1.0112261	0.8261658	-0.1213732	-0.97841137	0.86260459	0.25166888	-0.9200424	0.91412061	-0.07012712	-0.9090742	0.94532456	0.17004436	-1.0816534	0.98623234	0.05288279	-0.89717554	1.3836674	-0.095907432	-0.93240665	1.3761351	0.23184132	-0.97923009	1.4374693	0.069323344	-1.0135467	1.0288269	-0.18151682	-1.0808483	1.043281	0.29634261	-0.79360811	0.87128318	-0.15012346	-0.96942212	0.79565466	0.32916514
65	0.256	-1.3894755	0.10088785	-0.043102484	-0.67803047	0.040040649	0.10879238	-1.4079121	0.25767663	-0.075521304	-0.82473952	0.054579208	0.14436239	-1.3856906	0.23623345	0.018080331	-0.81760108	0.090906382	0.052195016	-1.4675992	0.30318483	-0.02510021	-0.89473658	0.031141581	0.09694244	-1.0310133	0.42166812	-0.10127646	-0.77780555	0.50860999	0.19306286	-1.0244912	0.40839017	0.024154973	-0.79779238	0.49299608	0.06662532	-1.0046526	0.82722153	-0.12113288	-0.97177366	0.86424122	0.25194302	-0.91408171	0.91544284	-0.070040477	-0.90240199	0.94673882	0.17012051	-1.0754602	0.98791942	0.053184451	-0.89096145	1.3849263	-0.095868628	-0.92528271	1.3773894	0.23200681	-0.97306748	1.4387814	0.069279173	-1.0080134	1.0303061	-0.18068162	-1.0735976	1.044348	0.29700989	-0.79005347	0.86997701	-0.15036316	-0.96074931	0.79698126	0.3290302
66	0.26	-1.3750401	0.10303784	-0.043107098	-0.67797944	0.039975522	0.10864373	-1.3941372	0.2596039	-0.074778908	-0.82477045	0.054621477	0.14437628	-1.3704017	0.23819818	0.018248434	-0.81729901	0.090889416	0.052090325	-1.4542938	0.30487208	-0.024372443	-0.89465253	0.0310561	0.096920464	-1.0174549	0.42275428	-0.10050379	-0.77432759	0.50830244	0.19310012	-1.0102583	0.40914724	0.025218741	-0.79512636	0.49276947	0.066942981	-0.99812255	0.82842423	-0.12092012	-0.96530701	0.86593062	0.25218144	-0.90814232	0.91687338	-0.069971807	-0.89561077	0.94824314	0.17020639	-1.0693239	0.98965988	0.053436328	-0.88493132	1.3862558	-0.095886694	-0.9181562	1.3787275	0.23214447	-0.96680725	1.4401796	0.069380064	-1.0025482	1.0318524	-0.1799133	-1.0663701	1.0455134	0.29764497	-0.78659137	0.86874468	-0.15065441	-0.95207785	0.79841077	0.3288666
67	0.264	-1.3602317	0.10494086	-0.042948498	-0.67795691	0.039919078	0.1085201	-1.3801885	0.26122563	-0.074048143	-0.82485824	0.054666233	0.14439689	-1.3547701	0.23979421	0.018532973	-0.81709248	0.090863084	0.051995147	-1.4409176	0.30621822	-0.023641907	-0.89458506	0.03096798	0.096876105	-1.0039845	0.42400018	-0.099660382	-0.77113493	0.50800991	0.19314568	-0.99453503	0.41000797	0.026354238	-0.79272864	0.49254027	0.067574807	-0.99167906	0.829753	-0.12074649	-0.9590798	0.86765242	0.2523813	-0.90223974	0.91841558	-0.06991247	-0.88877601	0.94980782	0.17030209	-1.0632252	0.9914275	0.053677944	-0.87896803	1.3876699	-0.095916907	-0.9110466	1.3801567	0.23226299	-0.96042253	1.4416842	0.069660965	-0.99715642	1.0334831	-0.17922691	-1.0591719	1.0467712	0.29826959	-0.78325572	0.86760255	-0.15100731	-0.94342128	0.79994779	0.32866926
68	0.268	-1.3450685	0.10660431	-0.042634206	-0.67796363	0.039881918	0.10842647	-1.3661094	0.26254486	-0.073322801	-0.82498029	0.054712318	0.1444262	-1.3404265	0.24098424	0.019359574	-0.81699262	0.090837121	0.051907038	-1.4274414	0.30722988	-0.022916555	-0.89459529	0.030918854	0.096807833	-0.99053873	0.42541628	-0.098735011	-0.76836502	0.50769774	0.19318295	-0.9784902	0.41103185	0.027527269	-0.79046903	0.49232712	0.068284166	-0.98535926	0.83119521	-0.12063817	-0.95345841	0.86932635	0.25245612	-0.89638199	0.92007666	-0.069856179	-0.88207574	0.95139189	0.17038054	-1.0571437	0.9931985	0.053971078	-0.87301913	1.3891752	-0.09593186	-0.90397859	1.3816822	0.23237947	-0.95398562	1.4432845	0.07003516	-0.99182019	1.0352083	-0.17856018	-1.0520112	1.0481176	0.29889637	-0.7800682	0.86656312	-0.15141926	-0.93479865	0.80160221	0.32844087
